<svg width="660" height="634" viewBox="0 0 660 634" fill="none" xmlns="http://www.w3.org/2000/svg">
<path d="M659.634 314.788C659.713 325.187 659.983 335.118 657.102 345.588C653.611 342.716 650.776 340.232 647.786 337.951C634.161 327.556 618.659 322.225 601.654 320.919C564.982 318.102 530.753 326.248 499.662 345.574C470.57 363.656 451.992 389.757 446.044 423.916C443.377 439.233 443.838 454.793 445.236 470.216C448.734 508.795 449.351 546.948 433.042 583.418C425.524 600.228 415.985 615.81 405.889 631.116C404.262 633.582 402.695 634.589 399.824 632.641C358.431 604.554 312.814 584.362 268.196 562.299C234.736 545.754 201.497 528.792 170.975 507.094C127.161 475.948 94.5761 436.081 76.6744 384.907C74.1989 377.83 72.2992 370.607 70.9471 363.236C70.6528 361.632 70.5041 359.969 68.8696 358.31C47.1103 380.783 25.4162 403.189 3.72209 425.595C3.20754 425.401 2.69298 425.206 2.17842 425.011C-3.04823 380.441 1.28748 336.617 13.4955 293.407C25.7401 250.068 45.841 210.453 71.1955 173.328C70.904 172.851 70.6125 172.375 70.3211 171.898C49.9698 176.636 29.6185 181.374 9.264 186.113C8.17072 183.474 9.7007 182.112 10.5507 180.647C32.3386 143.095 58.5303 109.029 90.4092 79.4183C132.098 40.6958 180.986 15.9918 236.607 4.73131C260.83 -0.17273 285.353 -1.09259 310.065 1.17932C364.11 6.14798 412.535 24.8428 454.546 59.4057C478.848 79.399 499.576 102.426 513.177 131.205C516.887 139.056 519.89 147.213 521.192 155.788C521.762 159.543 523.684 161.165 526.626 162.703C544.639 172.122 562.588 181.663 579.128 193.586C604.617 211.959 627.411 232.971 643.565 260.329C653.382 276.954 658.616 295.019 659.634 314.788ZM174.595 228.619C172.498 216.403 172.312 204.169 173.901 191.866C176.872 168.857 184.15 147.59 198.292 128.885C228.59 88.8107 278.655 71.6922 327.169 85.1987C355.349 93.0443 377.584 109.591 394.969 132.844C397.33 136.002 400.096 137.611 403.84 138.559C421.734 143.093 439.479 148.161 456.878 154.374C458.282 154.875 459.729 155.73 461.217 155.198C468.991 152.42 476.729 149.538 484.53 146.672C484.261 145.508 484.219 144.824 483.947 144.248C483.167 142.593 482.367 140.939 481.445 139.359C462.088 106.166 435.028 80.7949 401.999 61.6121C359.32 36.8249 313.182 27.9772 264.234 31.8182C239.854 33.7313 216.244 38.7309 193.422 47.4861C158.426 60.9114 128.943 82.5821 102.322 108.5C99.2972 111.445 95.7783 113.991 93.0738 118.486C113.936 117.637 133.944 115.098 155 115.115C152.293 120.808 148.652 124.667 145.239 128.615C121.568 155.99 98.9322 184.111 80.4769 215.393C61.975 246.754 48.2322 279.956 41.0668 315.728C40.1001 320.554 38.7392 325.478 39.1996 330.83C42.098 329.726 43.5438 327.821 45.2045 326.231C55.1964 316.67 65.0726 306.987 75.1243 297.489C83.3542 289.713 91.2266 281.529 100.33 274.72C101.488 273.854 102.758 272.612 104.348 273.752C105.571 274.63 105.453 276.033 105.31 277.412C104.66 283.687 103.985 289.961 103.462 296.247C101.478 320.078 102 343.755 108.33 367.006C119.495 408.015 144.257 439.788 176.539 466.209C204.824 489.357 236.901 506.464 269.34 522.86C303.523 540.138 338.395 556.039 372.06 574.356C377.386 577.253 382.278 581.017 387.979 583.15C389.252 581.151 388.643 579.615 388.302 577.967C382.908 551.884 370.41 528.999 356.157 506.962C338.607 479.828 318.451 454.45 301.851 426.672C299.666 423.016 297.248 423.747 294.366 425.588C287.068 430.253 279.749 434.888 272.369 439.422C269.598 441.124 267.136 443.506 262.432 444.251C268.902 421.844 276.853 400.968 288.692 381.541C300.594 362.01 315.756 345.216 332.502 329.102C328.393 326.681 325.326 328.112 322.402 328.592C306.009 331.283 289.669 331.545 273.277 328.489C248.034 323.783 226.837 311.529 208.71 293.774C190.577 276.014 179.273 254.503 174.595 228.619ZM418.07 269.474C428.052 269.122 438.031 268.618 448.016 268.447C481.653 267.872 515.245 268.479 548.611 273.362C574.657 277.173 599.74 283.931 622.35 298.066C623.467 298.765 624.555 300.186 626.315 299.368C626.303 296.043 625.05 293.134 623.834 290.232C614.752 268.56 600.334 250.869 582.745 235.619C556.314 212.701 525.87 196.266 494.531 181.293C492.385 180.268 490.548 180.34 488.386 181.275C477.539 185.963 466.632 190.514 455.746 195.112C453.897 195.893 452.242 196.755 451.139 198.676C438.378 220.92 425.535 243.118 412.74 265.343C412.1 266.455 411.175 267.577 411.844 269.124C412.257 269.273 412.712 269.567 413.176 269.582C414.504 269.626 415.836 269.557 418.07 269.474ZM327.092 115.484C311.569 109.882 295.556 108.198 279.414 111.285C227.168 121.279 193.783 170.769 201.971 221.401C210.661 275.134 262.537 313.388 319.34 298.817C368.17 286.29 395.077 241.404 388.458 192.166C383.525 155.47 362.209 129.994 327.092 115.484ZM436.845 323.446C468.859 314.57 501.392 307.876 534.913 301.039C532.5 299.49 531.123 299.087 529.57 299.037C520.254 298.741 510.937 298.092 501.623 298.126C469.508 298.245 437.452 299.578 405.615 304.154C402.215 304.643 398.734 305.12 395.854 307.519C371.3 327.972 346.165 347.744 322.858 369.661C321.637 370.809 319.906 371.779 320.27 374.89C356.717 352.021 395.35 335.448 436.845 323.446Z" fill="white"/>
<path d="M470.447 228.06C467.414 227.778 464.006 229.087 462.66 226.307C461.426 223.759 463.855 221.342 465.262 219.188C467.985 215.019 470.931 211.003 474.354 207.348C475.743 205.866 477.04 205.128 479.132 205.876C491.233 210.198 502.768 215.604 513.12 223.319C514.179 224.109 515.25 224.956 515.047 227.636C500.453 228.815 485.669 227.797 470.447 228.06Z" fill="white"/>
<path d="M334.722 279.218C285.354 306.163 227.075 277.161 215.662 225.44C205.773 180.625 232.242 134.531 280.719 124.562C326.994 115.046 369.376 145.77 376.732 192.969C382.142 227.68 365.374 262.299 334.722 279.218ZM306.456 139.056C297.679 137.417 289.095 138.385 280.306 140.447C284.383 146.956 324.084 185.608 327.66 186.417C328.075 174.091 328.513 161.843 328.877 149.593C328.95 147.15 326.89 146.31 325.144 145.371C319.53 142.353 313.477 140.569 306.456 139.056ZM329.423 265.303C331.912 263.463 335.054 262.353 336.911 258.052C318.622 251.275 300.499 244.56 281.829 237.642C281.723 239.603 281.451 240.469 281.672 241.183C284.818 251.345 288.039 261.483 291.223 271.633C291.973 274.021 293.78 274.307 295.942 274.351C307.733 274.589 318.653 271.618 329.423 265.303ZM258.923 186.032C251.796 186.382 244.671 186.764 237.542 187.068C233.948 187.221 231.788 188.647 231.041 192.477C228.722 204.376 228.452 216.192 231.829 227.924C232.299 229.559 232.393 231.908 234.673 232.179C236.911 232.445 237.588 230.256 238.527 228.782C245.408 217.977 253.201 207.839 260.994 197.692C263.768 194.081 267.061 190.781 269.22 186.023C265.754 186.023 262.806 186.023 258.923 186.032ZM256.641 151.505C250.2 156.137 245.035 161.973 240.781 168.611C239.777 170.177 237.9 171.827 239.295 173.99C240.469 175.808 242.569 175.352 244.355 175.312C257.325 175.02 270.293 174.651 283.264 174.365C287.549 174.27 291.837 174.35 297.128 174.35C289.825 165.804 282.127 159.236 274.757 152.367C266.735 144.889 266.603 145.031 256.641 151.505ZM273.179 253.126C270.339 242.706 267.536 232.276 264.622 221.877C264.15 220.195 263.852 218.072 261.573 217.713C259.447 217.379 258.798 219.283 257.945 220.607C253.258 227.886 248.669 235.227 244.002 242.519C242.545 244.796 241.821 246.861 243.923 249.283C251.692 258.234 260.754 265.363 271.864 269.723C273.272 270.276 274.786 271.017 276.141 270.021C277.781 268.815 277.175 266.951 276.766 265.394C275.753 261.535 274.56 257.723 273.179 253.126Z" fill="white"/>
</svg>
